<svg width="40" height="40" viewBox="0 0 40 40" fill="none" xmlns="http://www.w3.org/2000/svg">
<path fill-rule="evenodd" clip-rule="evenodd" d="M19.0904 7.05356L19.4744 7.10056L19.5704 7.33456C20.4344 7.38156 21.3464 7.14756 21.3464 7.14756C21.4424 7.05356 21.6824 6.77356 21.4424 6.63256C20.4824 6.81956 19.0904 6.49256 19.2824 6.58556C19.0904 6.53956 18.8504 6.39856 18.6104 6.16556C18.1784 5.46356 17.9384 5.93156 17.9384 6.16556C17.8904 7.00656 18.1304 6.96056 19.0904 7.05356ZM25.7144 18.7946C25.6779 18.4467 25.6137 18.1022 25.5224 17.7646C25.0424 16.2216 24.4664 14.5846 22.8824 13.8826C22.2104 13.6486 20.9624 13.6956 20.7704 12.1526V7.52056L18.7544 7.94056V8.22256L18.7064 9.11056V10.0466C18.7544 12.4316 18.8984 13.9286 16.2104 14.9106C14.5784 15.5186 14.4824 16.2206 14.2904 18.0446C14.2904 18.1846 14.2424 18.3246 14.2424 18.4186C14.2424 18.3726 13.7144 23.5646 15.4904 31.7966C15.4904 31.7966 15.7784 33.1526 15.7784 33.3396C15.7784 33.4336 15.9224 33.5736 16.1624 33.7606C19.1864 34.4626 19.8584 33.9476 21.4424 34.1816C23.0744 34.3686 24.5144 33.3866 24.5144 33.3396C24.6584 33.2936 25.1864 32.2176 25.2824 30.9076C26.0024 27.3056 25.8584 21.5526 25.7144 18.7936V18.7946Z" fill="#00A1DF"/>
</svg>
